<?xml version="1.0" standalone="no"?>
<!DOCTYPE svg PUBLIC "-//W3C//DTD SVG 20010904//EN"
 "http://www.w3.org/TR/2001/REC-SVG-20010904/DTD/svg10.dtd">
<svg version="1.0" xmlns="http://www.w3.org/2000/svg"
 width="1440.000000pt" height="1440.000000pt" viewBox="0 0 1440.000000 1440.000000"
 preserveAspectRatio="xMidYMid meet">
<metadata>
Created by potrace 1.14, written by Peter Selinger 2001-2017
</metadata>
<g transform="translate(0.000000,1440.000000) scale(0.100000,-0.100000)"
fill="#000000" stroke="none">
<path d="M6475 12693 c-16 -2 -50 -8 -74 -14 -24 -5 -112 -15 -195 -20 -161
-11 -206 -15 -498 -47 -257 -28 -321 -39 -483 -79 -77 -19 -225 -54 -330 -78
-104 -24 -251 -64 -325 -90 -74 -25 -162 -52 -195 -61 -33 -8 -87 -23 -120
-34 -33 -10 -103 -30 -155 -45 -52 -14 -169 -52 -260 -85 -91 -32 -199 -69
-240 -83 -247 -83 -466 -160 -491 -172 -15 -8 -70 -30 -122 -49 -52 -19 -103
-39 -113 -44 -11 -6 -64 -31 -119 -57 -122 -57 -358 -220 -493 -340 -66 -59
-255 -314 -308 -416 -71 -139 -94 -424 -54 -672 34 -208 76 -311 168 -410 33
-36 72 -83 87 -106 49 -79 256 -268 397 -363 73 -50 140 -93 148 -96 8 -3 53
-31 100 -62 104 -70 135 -86 321 -165 198 -85 601 -203 944 -275 77 -16 158
-36 180 -45 22 -8 67 -21 100 -29 33 -8 146 -37 250 -64 260 -69 286 -73 980
-162 506 -64 609 -70 1230 -69 286 0 923 -3 1415 -6 l895 -6 180 30 c265 44
650 128 716 155 20 8 110 34 200 56 90 23 297 80 459 127 162 47 363 103 445
125 205 53 406 126 493 180 50 31 144 75 222 105 100 38 240 119 348 201 236
180 360 272 368 272 5 0 30 19 57 41 35 31 60 66 95 137 46 92 88 171 172 327
49 89 60 153 60 336 0 159 -14 249 -57 359 -43 112 -49 123 -112 205 -34 44
-74 97 -90 117 -68 90 -280 311 -320 334 -24 15 -60 41 -80 58 -39 35 -112 82
-176 114 -22 11 -76 39 -120 61 -76 40 -413 181 -430 181 -4 0 -56 22 -114 49
-58 26 -135 58 -171 69 -36 11 -129 41 -207 66 -78 25 -172 53 -210 61 -37 9
-131 31 -208 50 -77 18 -180 40 -230 49 -49 9 -173 36 -275 61 -102 25 -324
72 -495 106 -170 33 -375 74 -455 90 -159 33 -424 75 -565 89 -49 6 -121 14
-160 20 -62 8 -1901 20 -1980 13z m1355 -307 c739 -30 945 -46 1330 -106 74
-11 171 -25 216 -30 44 -6 146 -23 225 -39 79 -16 171 -33 204 -36 109 -13
348 -66 470 -105 66 -21 217 -65 335 -99 433 -122 517 -149 640 -201 69 -29
175 -71 236 -95 63 -24 156 -70 215 -107 57 -36 163 -100 236 -143 145 -86
220 -152 282 -248 22 -34 51 -75 64 -92 34 -42 127 -230 143 -290 8 -27 17
-122 20 -210 6 -175 10 -156 -64 -356 -37 -103 -89 -190 -166 -277 -41 -47
-238 -177 -384 -254 -65 -33 -124 -66 -132 -73 -8 -6 -49 -26 -90 -44 -41 -18
-101 -50 -132 -72 -109 -74 -383 -198 -628 -284 -52 -19 -157 -59 -233 -89
-76 -31 -222 -78 -325 -105 -266 -70 -288 -77 -324 -99 -40 -24 -210 -74 -344
-102 -184 -39 -718 -121 -854 -131 -133 -11 -1922 -5 -2210 7 -69 2 -228 9
-355 14 -230 10 -281 16 -670 83 -110 19 -252 42 -315 52 -326 47 -716 144
-1220 301 -306 95 -607 215 -740 294 -70 42 -358 238 -425 289 -158 121 -281
265 -365 426 -22 44 -45 87 -49 95 -9 16 -15 33 -64 170 -27 74 -30 97 -29
178 2 103 29 200 85 307 39 72 257 295 363 370 216 152 261 180 439 275 44 23
100 58 124 76 24 19 50 34 57 34 7 0 53 20 101 44 49 25 126 54 172 66 46 11
132 41 192 65 111 45 416 143 664 213 39 11 124 36 190 55 66 20 163 43 215
52 52 9 147 27 210 40 490 101 860 155 1305 189 231 18 838 15 1385 -8z"/>
<path d="M6608 11355 c-1 -1 -77 -5 -168 -9 -91 -3 -185 -8 -210 -11 -25 -3
-83 -9 -130 -15 -89 -9 -496 -91 -541 -109 -15 -5 -91 -15 -170 -21 -79 -6
-182 -20 -229 -30 -47 -10 -117 -24 -156 -30 -92 -15 -297 -70 -404 -110 -120
-44 -422 -139 -442 -140 -10 0 -32 -6 -50 -14 -18 -8 -73 -27 -123 -42 -400
-121 -558 -184 -717 -288 -126 -82 -114 -84 152 -22 81 19 262 72 440 130 170
55 332 99 484 131 65 14 180 45 255 69 75 25 186 58 246 76 61 17 149 42 196
56 87 26 146 36 424 79 88 13 203 31 255 39 303 46 579 67 990 72 979 12 1611
13 1690 4 47 -6 123 -15 170 -21 47 -6 132 -19 190 -29 58 -10 168 -28 245
-40 77 -11 179 -30 226 -40 85 -19 152 -31 299 -50 41 -6 100 -15 130 -20 30
-6 80 -14 110 -20 58 -9 94 -16 275 -49 61 -11 144 -29 185 -40 41 -12 107
-28 145 -38 207 -50 496 -126 610 -162 72 -23 175 -53 230 -67 124 -32 242
-69 317 -100 73 -31 87 -30 58 1 -47 50 -135 99 -254 140 -135 47 -193 69
-311 115 -199 77 -277 104 -370 125 -55 13 -113 29 -130 35 -33 13 -129 36
-335 79 -74 16 -185 41 -245 54 -61 14 -142 30 -180 36 -82 12 -363 69 -373
75 -4 2 -63 16 -132 30 -69 14 -174 37 -235 51 -99 24 -284 49 -543 75 -51 5
-96 11 -100 14 -4 2 -79 7 -166 10 -88 4 -163 9 -168 13 -10 5 -1433 14 -1440
8z"/>
<path d="M12669 9690 c-85 -56 -259 -224 -301 -290 -9 -14 -30 -106 -48 -205
-17 -99 -51 -279 -76 -400 -25 -121 -65 -356 -89 -522 -24 -166 -54 -338 -65
-383 -11 -44 -27 -129 -35 -188 -8 -59 -18 -128 -23 -152 -6 -25 -13 -72 -16
-105 -4 -33 -18 -136 -31 -230 -14 -93 -29 -212 -35 -264 -6 -52 -31 -182 -56
-290 -95 -408 -135 -619 -149 -776 -4 -38 -13 -90 -20 -115 -7 -25 -21 -97
-30 -160 -25 -168 -65 -351 -165 -750 -49 -195 -95 -391 -104 -435 -21 -111
-74 -361 -87 -410 -42 -158 -156 -376 -291 -556 -97 -130 -459 -457 -593 -536
-194 -115 -448 -247 -510 -266 -28 -8 -81 -27 -120 -42 -38 -14 -106 -33 -150
-41 -44 -9 -132 -33 -195 -55 -63 -21 -124 -39 -135 -39 -11 0 -76 -16 -144
-35 -68 -19 -146 -37 -175 -40 -28 -4 -78 -13 -111 -20 -33 -8 -121 -23 -195
-34 -403 -61 -747 -59 -1345 4 -359 39 -446 53 -656 105 -225 57 -348 96 -457
147 -42 19 -106 48 -142 63 -36 15 -141 68 -233 118 -122 66 -188 109 -240
156 -40 36 -123 110 -184 166 -173 155 -289 283 -414 455 -35 48 -169 278
-169 290 0 3 -24 56 -54 118 -30 62 -67 148 -81 192 -32 98 -97 370 -165 690
-28 132 -73 323 -100 425 -27 102 -60 242 -75 312 -14 70 -37 169 -50 220
-123 464 -184 725 -235 1008 -16 91 -36 194 -44 230 -8 36 -18 97 -21 135 -7
75 -29 235 -44 325 -5 30 -13 89 -16 130 -3 41 -12 111 -20 155 -36 203 -75
571 -75 703 0 57 -5 106 -13 120 -21 41 -257 162 -517 267 -86 35 -187 81
-222 104 -36 22 -98 55 -139 73 -41 18 -97 46 -126 63 -28 16 -94 55 -145 84
-175 103 -320 210 -434 322 -92 90 -124 115 -187 144 -87 40 -182 49 -194 19
-3 -9 6 -91 21 -183 16 -91 36 -218 46 -281 22 -135 29 -165 121 -535 71 -285
122 -556 158 -835 24 -184 70 -480 76 -490 3 -4 16 -70 29 -146 29 -162 48
-253 123 -579 30 -132 65 -303 79 -380 13 -77 29 -154 34 -170 6 -17 19 -87
30 -155 35 -216 108 -548 149 -675 11 -33 27 -96 37 -140 9 -44 26 -105 36
-135 10 -30 30 -111 44 -180 14 -69 34 -165 44 -215 10 -49 34 -155 54 -235
68 -278 114 -496 125 -590 11 -89 27 -152 88 -358 25 -88 141 -332 209 -442
108 -174 133 -211 195 -295 92 -122 232 -275 310 -335 35 -28 93 -73 128 -102
35 -28 87 -64 115 -81 28 -17 74 -45 101 -63 184 -118 239 -150 357 -205 73
-34 153 -69 178 -79 25 -10 88 -38 140 -63 148 -69 376 -165 445 -187 22 -7
56 -21 75 -30 131 -66 468 -153 690 -180 146 -17 218 -18 1220 -9 1161 9 1201
11 1410 68 58 16 121 32 140 36 19 3 73 17 120 30 47 14 130 32 185 40 54 9
142 32 195 52 52 20 113 42 135 49 243 77 416 143 515 196 63 34 158 83 210
111 52 27 117 64 145 81 27 18 95 58 150 89 135 77 356 233 424 299 31 30 109
99 175 153 65 54 134 119 152 144 52 71 129 234 170 361 20 63 50 156 66 205
62 189 90 304 114 469 29 200 72 428 115 611 17 72 44 193 59 271 16 78 38
179 49 225 11 46 33 147 51 224 17 77 43 187 57 244 14 58 34 166 43 240 18
137 51 308 117 611 19 91 44 208 55 260 10 52 36 167 58 255 21 88 46 198 54
245 9 47 22 117 30 155 8 39 20 106 26 150 11 76 37 206 80 395 10 47 26 119
34 160 8 41 31 149 49 240 19 91 40 201 46 245 7 44 23 139 37 210 13 72 33
198 44 280 22 180 84 481 135 660 22 75 38 155 39 188 1 55 -1 60 -36 93 -49
45 -96 46 -159 4z"/>
</g>
</svg>
